<?xml version="1.0" encoding="utf-8"?>
<!-- Generator: Adobe Illustrator 13.0.0, SVG Export Plug-In . SVG Version: 6.00 Build 14948)  -->
<svg version="1.2" baseProfile="tiny" id="Layer_1" xmlns="http://www.w3.org/2000/svg" xmlns:xlink="http://www.w3.org/1999/xlink"
	 x="0px" y="0px" width="246.694px" height="191.755px" viewBox="0 0 246.694 191.755" xml:space="preserve">
<path fill="#3F6BA5" d="M0.141,180.132c0-2.289-0.069-4.23-0.141-5.824l5.239-0.002l0.247,2.146h0.141
	c0.622-0.867,2.113-2.528,5.063-2.528c2.189,0,3.891,1.006,4.617,2.739h0.072c0.657-0.903,1.458-1.563,2.359-2.046
	c0.868-0.454,1.872-0.693,3.021-0.693c3.676,0,5.796,2.672,5.796,7.426v10.028H20.48v-9.092c0-2.117-0.626-3.334-2.018-3.334
	c-1.004,0-1.627,0.624-1.905,1.458c-0.139,0.347-0.174,0.868-0.174,1.25v9.718h-6.073l-0.002-9.266c0-1.91-0.59-3.16-2.015-3.16
	c-1.109,0-1.664,0.834-1.91,1.389c-0.136,0.416-0.167,0.87-0.167,1.286v9.751H0.141V180.132z"/>
<path fill="#3F6BA5" d="M40.122,180.792c0-0.971-0.452-2.777-2.428-2.777c-1.84,0-2.572,1.701-2.675,2.777H40.122z M35.09,185.022
	c0.208,1.354,2.187,2.119,4.407,2.119c1.597,0,3.124-0.174,4.651-0.659l0.796,4.163c-2.043,0.801-4.267,1.076-6.384,1.076
	c-6.001,0-9.405-3.294-9.405-8.707c0-3.958,2.567-9.092,8.848-9.092c5.521,0,7.88,4.056,7.88,8.74c0,1.011-0.136,1.945-0.241,2.359
	H35.09z"/>
<path fill="#3F6BA5" d="M55.289,169.441l0.002,4.861h3.54v4.579l-3.54,0.003v4.893c0,2.012,0.449,2.844,1.977,2.844
	c0.727,0,0.968,0,1.494-0.139v4.751c-0.731,0.287-2.118,0.488-3.717,0.488c-1.838,0-3.365-0.66-4.269-1.559
	c-1.04-1.042-1.597-2.713-1.597-5.313v-5.965h-2.118v-4.582h2.118v-3.193L55.289,169.441z"/>
<path fill="#3F6BA5" d="M61.815,180.061c-0.002-2.708-0.035-4.338-0.141-5.758h5.342l0.249,3.083h0.134
	c0.903-2.601,3.057-3.465,4.548-3.465c0.555,0,0.801,0,1.25,0.1v5.865c-0.449-0.105-0.939-0.172-1.597-0.172
	c-1.836,0-3.085,0.763-3.435,2.153c-0.033,0.275-0.071,0.66-0.071,1.078l0.002,8.432h-6.281V180.061z"/>
<path fill="#3F6BA5" d="M83.852,187.353c1.702,0,2.605-1.773,2.605-4.513c0-2.363-0.765-4.513-2.605-4.513
	c-2.079,0-2.774,2.254-2.774,4.513c0,2.567,0.832,4.513,2.741,4.513H83.852z M83.68,191.755c-5.103,0-9.061-3.227-9.061-8.776
	c0-5.451,3.575-9.058,9.407-9.058c5.347,0,8.884,3.606,8.884,8.737c0,6.217-4.44,9.097-9.194,9.097H83.68z"/>
<path fill="#3F6BA5" d="M99.781,174.58l3.299,9.402c0.557,1.563,1.009,2.947,1.354,4.338h0.105c0.38-1.391,0.865-2.774,1.42-4.338
	l3.265-9.402h3.19l-6.592,16.792h-2.918L96.52,174.58H99.781z"/>
<path fill="#3F6BA5" d="M124.007,182.802c-3.329-0.071-7.112,0.519-7.112,3.783c0,2.013,1.319,2.914,2.844,2.914
	c2.221,0,3.645-1.392,4.13-2.811c0.103-0.316,0.139-0.662,0.139-0.971V182.802z M126.992,187.35c0,1.453,0.069,2.876,0.246,4.025
	h-2.746l-0.275-2.118h-0.104c-0.903,1.317-2.741,2.498-5.137,2.498c-3.4,0-5.136-2.395-5.136-4.828
	c0-4.058,3.608-6.278,10.098-6.242v-0.35c0-1.386-0.38-3.919-3.819-3.886c-1.597,0-3.224,0.449-4.404,1.247l-0.696-2.046
	c1.392-0.867,3.435-1.453,5.555-1.453c5.17,0,6.42,3.499,6.42,6.869V187.35z"/>
<path fill="#3F6BA5" d="M131.885,179.121c0-1.771-0.034-3.159-0.139-4.543h2.708l0.174,2.736h0.067
	c0.836-1.559,2.779-3.119,5.557-3.119c2.323,0,5.932,1.384,5.932,7.148v10.028h-3.052v-9.684c0-2.706-1.006-5-3.886-5
	c-1.979,0-3.54,1.424-4.097,3.131c-0.139,0.377-0.208,0.932-0.208,1.419v10.137h-3.057V179.121z"/>
<path fill="#3F6BA5" d="M163.125,190.746c-0.801,0.383-2.572,0.971-4.826,0.971c-5.069,0-8.362-3.43-8.362-8.571
	c0-5.172,3.537-8.953,9.022-8.953c1.805,0,3.398,0.452,4.235,0.901l-0.696,2.325c-0.729-0.382-1.873-0.803-3.539-0.803
	c-3.855,0-5.935,2.888-5.935,6.357c0,3.884,2.5,6.281,5.829,6.281c1.735,0,2.88-0.416,3.75-0.798L163.125,190.746z"/>
<path fill="#3F6BA5" d="M173.462,189.465c2.915,0,5.107-2.738,5.104-6.563c0-2.845-1.427-6.42-5.035-6.42
	c-3.573,0-5.137,3.334-5.137,6.524c0,3.677,2.087,6.458,5.036,6.458H173.462z M173.328,191.753c-4.516,0-8.055-3.33-8.055-8.641
	c0-5.624,3.714-8.917,8.329-8.917c4.823,0,8.088,3.501,8.088,8.602c0,6.248-4.338,8.956-8.329,8.956H173.328z"/>
<path fill="#3F6BA5" d="M199.599,186.755c0,1.769,0.036,3.298,0.139,4.617h-2.708l-0.172-2.743h-0.069
	c-0.763,1.353-2.569,3.124-5.552,3.124c-2.641,0-5.798-1.489-5.798-7.359v-9.818h3.052v9.264c0,3.193,1.011,5.378,3.75,5.378
	c2.051,0,3.47-1.42,4.027-2.811c0.172-0.416,0.277-0.971,0.277-1.563v-10.268h3.054V186.755z"/>
<path fill="#3F6BA5" d="M205.847,174.575l3.298,9.402c0.555,1.563,1.004,2.949,1.355,4.341h0.103
	c0.38-1.392,0.868-2.777,1.422-4.341l3.265-9.402h3.188l-6.592,16.795h-2.915l-6.387-16.795H205.847z"/>
<path fill="#3F6BA5" d="M231.668,181.342c0.031-1.946-0.798-4.965-4.203-4.965c-3.122,0-4.438,2.845-4.683,4.965H231.668z
	 M222.746,183.528c0.069,4.097,2.675,5.791,5.731,5.791c2.185,0,3.54-0.378,4.648-0.867l0.558,2.188
	c-1.076,0.483-2.952,1.073-5.624,1.073c-5.139,0.003-8.263-3.43-8.263-8.468c0-5.064,3.019-9.054,7.914-9.054
	c5.484,0,6.904,4.821,6.904,7.911c0,0.622-0.033,1.076-0.098,1.423L222.746,183.528z"/>
<path fill="#3F6BA5" d="M238.401,179.814c0-1.979-0.036-3.681-0.139-5.239h2.672l0.141,3.289h0.104
	c0.762-2.252,2.636-3.672,4.687-3.672c0.309,0,0.555,0.031,0.829,0.065v2.885c-0.311-0.039-0.626-0.072-1.039-0.072
	c-2.151,0-3.681,1.635-4.095,3.887c-0.071,0.449-0.104,0.937-0.104,1.424v8.989h-3.055V179.814z"/>
<path fill="#FFFFFF" d="M205.404,82.567c0.003,45.612-36.964,82.579-82.571,82.582c-45.606,0-82.573-36.965-82.575-82.576
	c0-45.604,36.964-82.572,82.568-82.573C168.436-0.001,205.402,36.963,205.404,82.567z"/>
<path fill="#246CA8" d="M122.943,159.138c28.119,0,52.667-15.203,65.927-37.822c-2.515-1.381-25.853-10.889-64.825-10.887
	c-37.274-0.27-54.122,6.53-67.098,10.766C70.193,143.883,94.779,159.141,122.943,159.138z"/>
<path fill="#CDD5E8" d="M92.81,54.726c0.289,0.328,5.55-7.666,11.214-6.258c3.466,0.857,5.844-2.862,5.844-2.862
	s3.576-6.058,8.103-6.014c1.943,0.021,4.974,5.286,6.704,7.683c0.992,1.341,1.209,3.041,3.463-0.07
	c1.656-2.275,5.789-2.895,5.789-2.895s3.613-0.391,6.417,2.691c2.07,2.271,4.429,2.786,10.418,4.226
	c6.633,1.596,15.11,7.073,19.84,10.404c7.135-1.782,15.134-3.513,24.118-5.08c-10.69-29.288-38.793-50.183-71.78-50.181
	C90.499,6.371,62.172,26.978,51.3,56.258c3.351,0.534,13.296,2.205,25.415,5.031c0.818-0.714,3.167-2.397,8.37-3.915
	C89.968,55.968,93.034,54.976,92.81,54.726z"/>
<path fill="#7CAD51" d="M196.705,62.888c-0.015-0.018-0.029-0.054-0.043-0.069c-30.182,4.619-66.396,21.662-66.396,21.662
	s19.564,10.771,29.498,20.15c0,0,30.184,0.132,36.297,0.241c2.122-7.003,3.268-14.427,3.268-22.123
	C199.329,75.876,198.411,69.223,196.705,62.888z"/>
<path fill="#CDD5E8" d="M116.748,46.813c0,0,5.98,2.332,7.567,6.005c0.791,1.841-0.033,3.828,0.563,7.782
	c0.923,6.128,3.636,6.219,8.439,8.725c6.473,3.38,5.626,7.03,5.626,7.03s-7.88-5.625-15.6-8.175
	c-7.268-2.408-3.633-9.945-5.808-13.097c-3.164-4.59-7.026-0.792-6.864-2.526C110.936,49.801,116.748,46.813,116.748,46.813z"/>
<path fill="#CDD5E8" d="M85.114,63.324c0,0,3.764-3.943,7.882-3.943c4.113,0,3.855-3.141,5.485-4.652
	c3.432-3.183,9.326-0.521,9.326-0.521s-1.276-0.267-5.847,3.401c-2.349,1.881-2.657,5.679-2.933,7.138
	c-0.227,1.224,2.199,4.673,2.199,4.673L85.114,63.324z"/>
<path fill="#CDD5E8" d="M129.943,54.132c0,0,4.305,1.688,6.752,1.688c2.443,0,3.438-0.146,4.407-1.655
	c2.032-3.186,11.633,3.627,11.633,3.627s-8.27-2.548-10.978,1.124c-1.389,1.882,2.216,4.003,2.817,5.346
	c2.245,5.063-1.41,6.188-1.41,6.188L129.943,54.132z"/>
<path fill="#7CAD51" d="M60.929,104.862l0.022-9.18l8.762-0.025l0.009,4.162l4.25-0.009l0.063-9.268l4.269-1.978l3.757-0.01
	l4.082,1.939l-0.005,5.83l2.485,0.021L88.62,84.722l5.918,0.047l0.035,9.764l2.883,0.014l0.002,6.66l2.744,0.007
	c0,0,0.038-8.184,0.048-8.802c3.661-0.045,8.813-0.002,8.813-0.002v7.317l3.85,0.093l0.086-2.251l5.82-0.093l0.093,7.225
	l30.829,0.038c-3.604-2.713-52.184-38.623-100.62-41.6c-1.659,6.25-2.558,12.822-2.558,19.617c0,7.689,1.15,15.108,3.263,22.106
	H60.929z"/>
</svg>
